<?xml version="1.0" encoding="UTF-8"?><svg id="_Слой_1" xmlns="http://www.w3.org/2000/svg" xmlns:xlink="http://www.w3.org/1999/xlink" viewBox="0 0 592.39 148.76"><defs><style>.cls-1{fill:none;}.cls-2{clip-path:url(#clippath);}.cls-3{fill:#ef3124;}</style><clipPath id="clippath"><rect class="cls-1" width="592.39" height="148.76"/></clipPath></defs><polygon class="cls-3" points="524.65 0 524.65 101.61 542.65 101.61 542.65 71.36 569.02 101.61 592.39 101.61 559.77 64.11 590.14 31.24 567.27 31.24 542.65 58.37 542.65 0 524.65 0"/><g class="cls-2"><path class="cls-3" d="M486.78,28.25c-10.37,0-17,5.5-20.25,10.75v-7.75h-18V101.61h18V58.62c0-9.75,4.75-14.25,13-14.25s12.62,4.5,12.62,14.25v42.99h18V57.74c0-19.25-8.12-29.5-23.37-29.5"/><path class="cls-3" d="M162.96,25.37c0-6.87,2.87-10,9.5-10h20.25V0h-25.37C152.71,0,144.96,7.62,144.96,22v13.62h-16.12v16.25h16.12v49.74h18V51.87h17.62v-16.25h-17.62v-10.25Z"/><rect class="cls-3" x="101.47" width="18" height="101.61"/><rect class="cls-3" y="128.77" width="96.2" height="19.99"/><path class="cls-3" d="M65.59,17c-2.74-8.18-5.9-14.64-16.74-14.64s-14.2,6.43-17.08,14.64L2,101.61H21.74l6.87-20.11h37.98l6.37,20.11h20.99L65.59,17Zm-31.23,47.51l13.49-40.1h.5l12.74,40.1h-26.74Z"/><path class="cls-3" d="M432.79,79.99v-23.62c0-17.25-11-28.12-29.49-28.12s-29.25,11.5-30.12,23.5h18.25c.62-2.62,3.37-7.12,11.87-7.12,7,0,11.5,3.25,11.5,11.75h-17.87c-16,0-25.5,8.37-25.5,22.37s10.39,24.62,25.37,24.62c10.98,0,17.08-5.19,19.75-9.12,2.37,4.75,7.62,7.37,14.5,7.37h6.25v-16.25c-3.25,0-4.5-1.5-4.5-5.38m-18-4.62c0,8.12-5.75,12.75-13.25,12.75-6.5,0-11.62-2.38-11.62-9.37s5.62-8,10.5-8h14.37v4.62Z"/><path class="cls-3" d="M246.07,79.99v-23.62c0-17.25-11-28.12-29.5-28.12s-29.25,11.5-30.12,23.5h18.25c.62-2.62,3.38-7.12,11.87-7.12,7,0,11.5,3.25,11.5,11.75h-17.87c-16,0-25.5,8.37-25.5,22.37s10.39,24.62,25.37,24.62c10.98,0,17.08-5.19,19.75-9.12,2.38,4.75,7.62,7.37,14.5,7.37h6.25v-16.25c-3.25,0-4.5-1.5-4.5-5.38m-18-4.62c0,8.12-5.75,12.75-13.25,12.75-6.5,0-11.62-2.38-11.62-9.37s5.62-8,10.5-8h14.37v4.62Z"/><path class="cls-3" d="M346.81,49.99c6.75-3,12.87-10,12.87-19.87,0-16.62-10.87-26.62-29.12-26.62h-46.74V101.61h45.12c21,0,32.87-10.37,32.87-28.5,0-12.87-7.37-20.25-15-23.12m-44.37-29.37h26c7.75,0,11.87,3.62,11.87,11s-4.12,11-11.75,11h-26.12V20.62Zm24.37,63.86h-24.37v-25h24.37c10.37,0,15.62,4.25,15.62,12.5s-5.37,12.5-15.62,12.5"/></g></svg>