<svg width="575" height="169" viewBox="0 0 575 169" fill="none"
  xmlns="http://www.w3.org/2000/svg">
  <g clip-path="url(#clip0_45_468)">
    <path d="M490.5 128.04H510.49V91.52H554.24V128.04H574.23V40H554.24V74.86H510.49V40H490.5V128.04Z" fill="#202022"/>
    <path d="M480.78 88.0501C480.78 56.1101 464.12 36.3901 437.87 36.3901C411.62 36.3901 391.9 58.3301 391.9 83.7401C391.9 110.4 410.65 131.23 440.09 131.23C453.56 131.23 466.06 126.79 476.47 117.9L467.72 104.99C460.22 110.41 450.92 114.57 440.78 114.57C425.78 114.57 415.09 105.96 412.03 91.9301H480.77V88.0401L480.78 88.0501ZM411.9 76.2401C414.54 62.4901 425.09 53.1901 437.87 53.1901C450.65 53.1901 458.98 61.9401 461.2 76.2401H411.9Z" fill="#202022"/>
    <path d="M345.93 131.24C370.51 131.24 385.79 119.58 385.79 104.02C385.79 94.4399 380.37 86.1099 367.04 83.4699L366.21 83.3299V82.4999L367.04 82.3599C379.68 79.8599 384.95 72.0799 384.95 62.9199C384.95 48.7599 371.76 36.6699 348.84 36.6699C333.29 36.6699 318.15 42.4999 305.65 51.8099L313.57 65.4199C322.32 59.3099 334.68 53.3399 347.45 53.3399C359.11 53.3399 365.5 58.3399 365.5 64.9999C365.5 71.1099 359.81 75.6899 347.59 76.1099L326.48 77.0799V90.4099L347.59 91.3799C360.5 92.0699 365.5 96.6599 365.5 102.35C365.5 109.02 358.56 114.85 344.53 114.85C330.5 114.85 318.98 109.16 309.12 102.35V120.96C315.09 124.43 328.14 131.24 345.92 131.24H345.93Z" fill="#202022"/>
    <path d="M291.64 108.18V40H221.79L216.65 85.41C214.43 104.02 208.87 108.18 198.87 108.18H198.04V148.04H218.04V128.04H283.31V148.04H303.31V108.18H291.65H291.64ZM271.78 111.38H223.04V110.55C229.01 108.33 234.15 104.58 235.68 90L239.15 56.53H271.78V111.38Z" fill="#202022"/>
    <path d="M83.68 168.04H84.35C117.72 168.04 137.09 164.68 150.81 151.36C164.8 137.23 168.03 117.73 168.03 84.49V83.55C168.03 50.32 164.8 30.95 150.81 16.68C137.1 3.36 117.59 0 84.36 0H83.69C50.32 0 30.94 3.36 17.22 16.68C3.23 30.81 0 50.32 0 83.55V84.49C0 117.72 3.23 137.09 17.22 151.36C30.81 164.68 50.32 168.04 83.68 168.04Z" fill="#202022"/>
    <path d="M148.04 82.75C148.04 82.11 147.52 81.58 146.88 81.55C123.91 80.68 109.93 77.75 100.15 67.97C90.35 58.17 87.43 44.18 86.56 21.16C86.54 20.52 86.01 20 85.36 20H82.68C82.04 20 81.51 20.52 81.48 21.16C80.61 44.17 77.69 58.17 67.89 67.97C58.1 77.76 44.13 80.68 21.16 81.55C20.52 81.57 20 82.1 20 82.75V85.43C20 86.07 20.52 86.6 21.16 86.63C44.13 87.5 58.11 90.43 67.89 100.21C77.67 109.99 80.59 123.94 81.47 146.87C81.49 147.51 82.02 148.03 82.67 148.03H85.36C86 148.03 86.53 147.51 86.56 146.87C87.44 123.94 90.36 109.99 100.14 100.21C109.93 90.42 123.9 87.5 146.87 86.63C147.51 86.61 148.03 86.08 148.03 85.43V82.75H148.04Z" fill="white"/>
  </g>
  <defs>
    <clipPath id="clip0_45_468">
      <rect width="574.23" height="168.04" fill="white"/>
    </clipPath>
  </defs>
</svg>
