<?xml version="1.0" encoding="UTF-8"?>
<svg width="163px" height="34px" viewBox="0 0 163 34" version="1.1" xmlns="http://www.w3.org/2000/svg" xmlns:xlink="http://www.w3.org/1999/xlink">
    <title>logo/logo-color</title>
    <defs>
        <linearGradient x1="59.112449%" y1="96.1742706%" x2="38.9543803%" y2="-0.465046462%" id="linearGradient-1">
            <stop stop-color="#F2E913" offset="14.44%"></stop>
            <stop stop-color="#E7E518" offset="30.37%"></stop>
            <stop stop-color="#CADB26" offset="58.23%"></stop>
            <stop stop-color="#A3CD39" offset="89.1%"></stop>
        </linearGradient>
        <linearGradient x1="8.72134465%" y1="58.1851112%" x2="94.3031729%" y2="38.5209162%" id="linearGradient-2">
            <stop stop-color="#0FA8E0" offset="5.92%"></stop>
            <stop stop-color="#0099F9" offset="53.85%"></stop>
            <stop stop-color="#0291EB" offset="92.34%"></stop>
        </linearGradient>
        <linearGradient x1="-2.01373612%" y1="56.8894972%" x2="94.9659392%" y2="43.6740785%" id="linearGradient-3">
            <stop stop-color="#A3CD39" offset="12.26%"></stop>
            <stop stop-color="#86C339" offset="28.46%"></stop>
            <stop stop-color="#21A038" offset="86.93%"></stop>
        </linearGradient>
        <linearGradient x1="-7.69497739%" y1="40.5141265%" x2="92.1517094%" y2="58.4253115%" id="linearGradient-4">
            <stop stop-color="#0291EB" offset="5.66%"></stop>
            <stop stop-color="#0C8ACB" offset="79%"></stop>
        </linearGradient>
        <linearGradient x1="7.81427923%" y1="40.1254331%" x2="99.7805347%" y2="62.569529%" id="linearGradient-5">
            <stop stop-color="#F2E913" offset="13.24%"></stop>
            <stop stop-color="#EBE716" offset="29.77%"></stop>
            <stop stop-color="#D9E01F" offset="53.06%"></stop>
            <stop stop-color="#BBD62D" offset="80.23%"></stop>
            <stop stop-color="#A3CD39" offset="98.29%"></stop>
        </linearGradient>
        <linearGradient x1="35.8867803%" y1="103.773509%" x2="60.1586064%" y2="7.10720812%" id="linearGradient-6">
            <stop stop-color="#A3CD39" offset="6.98%"></stop>
            <stop stop-color="#81C55F" offset="25.99%"></stop>
            <stop stop-color="#0FA8E0" offset="92.16%"></stop>
        </linearGradient>
    </defs>
    <g id="Page-1" stroke="none" stroke-width="1" fill="none" fill-rule="evenodd">
        <g id="logo/logo-color">
            <rect id="Rectangle" x="0" y="0" width="163" height="34"></rect>
            <path d="M2.5280779,16.7997768 C2.5280779,16.6607137 2.53152842,16.5224842 2.53838316,16.3850421 L0.0137492126,16.2603832 C0.00515615158,16.4393242 -9.32587341e-15,16.6191452 -9.32587341e-15,16.7997768 C-9.32587341e-15,19.7817263 1.22451306,22.4821221 3.20521474,24.4370421 L4.9951579,22.6703958 C3.47245684,21.1658506 2.5280779,19.089699 2.5280779,16.7997768 Z" id="Path" fill="url(#linearGradient-1)" fill-rule="nonzero"></path>
            <path d="M10.9426379,8.49429052 C11.0835768,8.49429052 11.2236358,8.49938526 11.3628379,8.50617052 L11.4891874,6.01357004 C11.3079074,6.00508897 11.1257242,6 10.9426379,6 C7.92138945,6 5.18530737,7.20855494 3.20461263,9.1634379 L4.99455579,10.9300611 C6.51897052,9.42551579 8.62251786,8.49429052 10.9426379,8.49429052 Z" id="Path" fill="url(#linearGradient-2)" fill-rule="nonzero"></path>
            <path d="M10.9430779,25.105101 C10.8021158,25.105101 10.66208,25.10172 10.5228548,25.0949116 L10.3965052,27.5866548 C10.5778084,27.5951537 10.7599916,27.6002252 10.9430779,27.6002252 C13.9643263,27.6002252 16.7004084,26.3916842 18.68108,24.4368337 L16.8911137,22.6701874 C15.3667221,24.1730421 13.2631284,25.105101 10.9430779,25.105101 Z" id="Path" fill="url(#linearGradient-3)" fill-rule="nonzero"></path>
            <path d="M15.6879916,9.94372 L17.8165032,8.39591579 C15.9380506,6.89729894 13.5474842,6 10.9437494,6 L10.9437494,8.49514737 C12.7028,8.49429052 14.3363348,9.03030316 15.6879916,9.94372 Z" id="Path" fill="url(#linearGradient-4)" fill-rule="nonzero"></path>
            <path d="M21.71048,14.8659215 C21.8255979,15.4945689 21.8857852,16.1410539 21.8857852,16.8019943 C21.8857852,19.8657432 20.5937443,22.6321249 18.5189888,24.5974782 L18.2852652,24.8125288 L16.586379,22.9587868 C18.2878126,21.4375885 19.358541,19.2402761 19.358541,16.801114 L19.3574671,16.6904051 L19.3574671,16.6904051 L19.3550906,16.5796963 L21.71048,14.8659215 Z M39.4818649,11.7606794 L39.7350418,11.9512771 L39.8692869,12.070019 L37.7817756,13.5476963 C37.0126799,13.0206307 36.0948132,12.7437789 35.157284,12.7560835 C33.5735201,12.6947124 32.082591,13.4901189 31.2721315,14.8288014 C30.461672,16.1674838 30.461672,17.8347306 31.2721315,19.1734131 C32.082591,20.5120956 33.5735201,21.307502 35.157284,21.246131 C35.9321873,21.2484416 36.6972427,21.085905 37.4003117,20.7710224 L37.6609551,20.6458246 L38.3120438,20.2961957 L40.1981873,21.6155503 C38.8226007,22.9411298 36.955247,23.6561531 35.0297512,23.5945824 C33.1303751,23.6341527 31.2878409,22.9565655 29.8814517,21.7013084 C28.5669647,20.4515375 27.8379557,18.7224647 27.8677752,16.9252443 L27.867547,16.7037803 C27.8961451,15.0091019 28.6204351,13.3936933 29.8814517,12.2283416 C31.3060087,11.0057624 33.1458225,10.3536003 35.0364634,10.4010353 C36.6336429,10.3569933 38.1970457,10.8371318 39.4818649,11.7606794 Z M130.451166,16.7007435 C131.238142,16.6968214 132.007976,16.9267881 132.659498,17.3606314 L132.659498,18.91747 C132.197768,18.1472984 131.360647,17.6696719 130.451166,17.6574863 C129.001319,17.6574863 128.202561,18.4886796 128.202561,20.111486 L128.202561,20.1510666 C128.202561,21.8398406 129.014744,22.6182599 130.478015,22.6182599 C131.386812,22.6856593 132.257568,22.2475842 132.733333,21.4836148 L132.733333,22.7633889 C132.139317,23.3451707 131.31306,23.6376023 130.478015,23.5615986 L130.478015,23.5550018 C128.296533,23.5550018 127.041341,22.4071632 127.041341,20.0982924 C127.041341,17.7894217 128.504613,16.7007435 130.451166,16.7007435 Z M122.832757,16.7009541 C124.786023,16.7009541 125.880121,17.8619862 125.880121,19.8146312 L125.880121,20.5270827 L120.597577,20.5270827 C120.560883,21.1152049 120.792749,21.6888101 121.230097,22.091849 C121.667444,22.4948879 122.264782,22.685439 122.859606,22.6116631 C124.202057,22.6116631 125.027665,22.1103084 125.403551,21.477018 L125.403551,22.7567921 C125.061226,23.1657921 124.20877,23.5550018 122.859606,23.5550018 C120.671411,23.5550018 119.416219,22.4071632 119.416219,20.0982924 C119.416219,17.7894217 120.879491,16.7009541 122.832757,16.7009541 Z M107.354298,16.6679098 C109.099484,16.6679098 109.696874,17.3276475 109.696874,18.3831313 C109.73975,19.0651776 109.301188,19.6871529 108.636338,19.8871957 C109.549205,20.0587118 110.045912,20.5468731 110.045912,21.3912601 C110.045912,22.8755341 108.79072,23.5286146 107.253613,23.5286146 C106.336465,23.604706 105.426777,23.3146195 104.729805,22.7238083 L104.756655,21.477018 C105.340561,22.2600558 106.295845,22.6895288 107.280463,22.6116631 C108.233603,22.6116631 108.924965,22.2290503 108.924965,21.4968084 C108.924965,20.7645665 108.361136,20.5402763 107.280463,20.5402763 L106.246775,20.5402763 L106.246775,19.6365183 L107.079095,19.6365183 C107.944976,19.6365183 108.569215,19.3198731 108.569215,18.5810345 C108.569215,17.9609378 108.233603,17.6442927 107.354298,17.6179056 C106.35904,17.6083337 105.419853,18.0698481 104.83049,18.858099 L104.83049,17.3276475 C105.527954,16.9320767 106.311035,16.7080057 107.113156,16.6727911 L107.354298,16.6679098 Z M94.4466314,14.2007769 L94.4466314,15.2562607 L89.0768274,15.2562607 L89.0768274,17.3606314 L90.9696832,17.3606314 C93.6545852,17.3606314 95.0574467,18.2907765 95.0574467,20.3555666 C95.0574467,22.4203567 93.6075991,23.4296631 90.9696832,23.4296631 L87.8283479,23.4296631 L87.8283479,14.2007769 L94.4466314,14.2007769 Z M98.0645365,16.8394863 L98.0645365,21.740889 L101.957645,16.8394863 L102.964483,16.8394863 L102.964483,23.4296631 L101.816687,23.4296631 L101.816687,18.4820829 L98.0645365,23.2713405 L97.937004,23.4296631 L96.9167415,23.4296631 L96.9167415,16.8394863 L98.0645365,16.8394863 Z M112.945606,16.8394863 L112.945606,19.5969376 L116.59036,19.5969376 L116.59036,16.8394863 L117.738156,16.8394863 L117.738156,23.4296631 L116.59036,23.4296631 L116.59036,20.5798569 L112.945606,20.5798569 L112.945606,23.4296631 L111.79781,23.4296631 L111.79781,16.8394863 L112.945606,16.8394863 Z M66.9532354,10.5725514 L63.9125838,12.7099061 L59.677151,12.7099061 L59.677151,15.8565671 L65.8859868,15.8565671 L65.8859868,17.9939216 L59.677151,17.9939216 L59.677151,21.2857117 L66.9532354,21.2857117 L66.9532354,23.4230663 L56.7774569,23.4230663 L56.7774569,10.5725514 L66.9532354,10.5725514 Z M54.2469368,10.5725514 L51.2062854,12.7099061 L45.5545668,12.7099061 L45.5545668,15.5860993 L49.0919251,15.5860993 C52.3003829,15.5860993 54.0724183,16.9318411 54.0589937,19.3858409 C54.0589937,21.880704 52.2000461,23.3404946 48.9694461,23.4196691 L48.6891898,23.4230663 L42.6481604,23.4230663 L42.6481604,10.5725514 L54.2469368,10.5725514 Z M75.1958841,10.5725514 C78.7265307,10.5725514 80.9281499,12.33389 80.9281499,15.1705026 C80.9281499,17.9343815 78.8443592,19.6962102 75.4653264,19.7847433 L75.1958841,19.7882441 L72.5713927,19.7882441 L72.5713927,23.4230663 L69.658274,23.4230663 L69.658274,10.5725514 L75.1958841,10.5725514 Z M89.0701145,18.422712 L89.0701145,22.3807761 L90.9226971,22.3807761 C92.7618553,22.3807761 93.7552689,21.8266471 93.7552689,20.2895988 C93.7552689,18.8976797 92.8692512,18.4359055 90.8824246,18.4359055 L89.0701145,18.422712 Z M48.5817937,17.7234539 L45.5545668,17.7234539 L45.5545668,21.2923085 L48.5817937,21.2923085 C50.3605413,21.2857117 51.2666956,20.6920021 51.2666956,19.5045828 C51.2666956,18.3171635 50.4276638,17.7234539 48.5817937,17.7234539 Z M19.6615517,10.1458621 C20.1817235,10.8169378 20.6215572,11.5466326 20.972069,12.3200422 L11.0075862,19.6659633 L6.84465517,17.0554294 L6.84465517,13.9155793 L11.0075862,16.5185245 L19.6615517,10.1458621 Z M121.282766,18.1435993 C120.894016,18.4819322 120.654664,18.9534371 120.611239,19.4584507 L120.604,19.5898539 L124.732325,19.5903409 C124.784718,19.0753333 124.603975,18.5637442 124.238108,18.1914655 C123.87224,17.8191867 123.358283,17.6239028 122.832757,17.6574863 C122.269521,17.5980451 121.706859,17.7745088 121.282766,18.1435993 Z M75.1421858,12.7099061 L72.5646804,12.7099061 L72.5646804,17.6574863 L75.1421858,17.6574863 C77.0014806,17.6574863 78.0284553,16.7669218 78.0284553,15.1770994 C78.0284553,13.587277 77.0014806,12.7099061 75.1421858,12.7099061 Z" id="Combined-Shape" fill="#21A038" fill-rule="nonzero"></path>
            <path d="M10.9439579,25.1055874 C8.47345055,25.1055874 6.24781474,24.0488694 4.70707368,22.369621 L2.82950106,24.046299 C4.83166316,26.2293706 7.72584421,27.6007348 10.9439579,27.6007348 L10.9439579,25.1055874 Z" id="Path" fill="url(#linearGradient-5)" fill-rule="nonzero"></path>
            <path d="M5.30019368,10.6442695 L3.60135368,8.79115158 C1.38949684,10.7672611 5.32907052e-15,13.6236716 5.32907052e-15,16.7998926 L2.5280779,16.7998926 C2.52893474,14.3607179 3.59876,12.1649326 5.30019368,10.6442695 Z" id="Path" fill="url(#linearGradient-6)" fill-rule="nonzero"></path>
        </g>
    </g>
</svg>