<svg xmlns:xlink="http://www.w3.org/1999/xlink" xmlns="http://www.w3.org/2000/svg" width="110" height="24" fill="none" viewBox="0 0 111 24"><g clip-path="url(#logo_vk_video_color_with_text_24h__a)" fill="none"><g clip-path="url(#logo_vk_video_color_with_text_24h__b)" fill="none"><path fill="#0077FF" d="M0 8.77C0 1.55 1.55 0 8.77 0h6.46C22.45 0 24 1.55 24 8.77v6.46c0 7.22-1.55 8.77-8.77 8.77H8.77C1.55 24 0 22.45 0 15.23V8.77Z"></path><path fill="#FF2B42" d="M12.9 24h2.28c7.1 0 8.74-1.48 8.82-8.28V8.24C23.92 1.47 22.26 0 15.18 0H12.9C5.64 0 4.08 1.55 4.08 8.77v6.46c0 7.22 1.56 8.77 8.82 8.77Z"></path><path fill="#FFFFFF" d="M16.93 9.92c1.22.7 1.82 1.05 2.03 1.51.18.4.18.86 0 1.25-.2.46-.81.81-2.03 1.51l-3.32 1.92c-1.21.7-1.82 1.05-2.32 1a1.54 1.54 0 0 1-1.08-.63c-.3-.4-.3-1.1-.3-2.5v-3.84c0-1.4 0-2.1.3-2.5A1.54 1.54 0 0 1 11.29 7c.5-.06 1.1.3 2.32 1l3.32 1.91Z"></path></g><path fill="currentColor" d="M36.26 18.06h3L43.64 6h-2.18l-3.52 9.94h-.34L34.21 6H32l4.26 12.06Zm18.63 0-5.54-6.24L54.46 6h-2.53l-4.28 4.9h-.5V6H45.1v12.06h2.06v-5.17h.51l4.51 5.17h2.7Zm11.77-6.2a2.66 2.66 0 0 0 1.73-2.58C68.39 7.37 66.8 6 64.47 6h-4.7v12.06h5.04c2.35 0 3.94-1.37 3.94-3.37a2.8 2.8 0 0 0-2.09-2.82ZM61.82 7.8h2.65c1.1 0 1.85.66 1.85 1.66 0 .97-.75 1.64-1.85 1.64h-2.65V7.8Zm3 8.46h-3V12.9h3c1.07 0 1.83.69 1.83 1.68 0 1-.76 1.7-1.84 1.7Zm5.8 1.8h2.79l3.32-6.6H77v6.6h1.88v-8.9H76.1l-3.31 6.6h-.28v-6.6h-1.88v8.9Zm9.55 2.65h1.97v-2.65h6.4v2.65h1.96v-4.45h-1.54v-7.1h-6.52L82 13.71c-.15 1.61-.63 2.55-1.6 2.55h-.23v4.45Zm3-4.45c.47-.46.68-1.25.81-2.58l.28-2.72h2.73v5.3h-3.83Zm17.25-2.75a4.43 4.43 0 0 0-4.62-4.52 4.45 4.45 0 0 0-4.61 4.62 4.45 4.45 0 0 0 4.62 4.62c1.84 0 3.59-.87 4.25-2.57l-1.84-.3a2.7 2.7 0 0 1-2.3 1.07c-1.5 0-2.5-.92-2.68-2.29h7.15c.02-.19.03-.4.03-.63Zm-4.62-2.8c1.24 0 2.16.78 2.49 1.9h-4.93a2.49 2.49 0 0 1 2.45-1.9Zm10.4 7.52c2.78 0 4.75-1.92 4.75-4.62S108.98 9 106.2 9c-2.79 0-4.76 1.92-4.76 4.62s1.97 4.62 4.76 4.62Zm0-1.8c-1.61 0-2.7-1.14-2.7-2.82 0-1.67 1.09-2.82 2.7-2.82 1.6 0 2.7 1.15 2.7 2.82 0 1.68-1.1 2.82-2.7 2.82Z"></path></g><defs><clipPath id="logo_vk_video_color_with_text_24h__a"><path fill="#fff" d="M0 0h111v24H0z"></path></clipPath><clipPath id="logo_vk_video_color_with_text_24h__b"><path fill="#fff" d="M0 0h24v24H0z"></path></clipPath></defs></svg>